<svg preserveAspectRatio="none" width="100%" height="100%" overflow="visible" style="display: block;" viewBox="0 0 50 50" fill="none" xmlns="http://www.w3.org/2000/svg">
<g id="eos-icons:software">
<path id="Vector" d="M29.1667 38.1667C26.8944 37.0684 24.9429 35.4039 23.5 33.3333H6.25V8.33333H43.75V13.0417C45.4358 14.2281 46.8551 15.7537 47.9167 17.5208V8.33333C47.9167 7.22826 47.4777 6.16846 46.6963 5.38706C45.9149 4.60565 44.8551 4.16667 43.75 4.16667H6.25C5.14493 4.16667 4.08512 4.60565 3.30372 5.38706C2.52232 6.16846 2.08333 7.22826 2.08333 8.33333V33.3333C2.08333 34.4384 2.52232 35.4982 3.30372 36.2796C4.08512 37.061 5.14493 37.5 6.25 37.5H20.8333V41.6667H16.6667V45.8333H33.3333V41.6667H29.1667V38.1667Z" fill="var(--fill-0, #F5F5F5)"/>
<path id="Vector_2" d="M35.4167 12.5C32.9444 12.5 30.5277 13.2331 28.472 14.6066C26.4164 15.9801 24.8143 17.9324 23.8682 20.2165C22.9221 22.5005 22.6745 25.0139 23.1569 27.4386C23.6392 29.8634 24.8297 32.0907 26.5778 33.8388C28.326 35.587 30.5533 36.7775 32.978 37.2598C35.4028 37.7421 37.9161 37.4946 40.2002 36.5485C42.4843 35.6024 44.4365 34.0002 45.81 31.9446C47.1836 29.889 47.9167 27.4723 47.9167 25C47.9167 21.6848 46.5997 18.5054 44.2555 16.1612C41.9113 13.817 38.7319 12.5 35.4167 12.5ZM35.4167 28.125C34.7986 28.125 34.1944 27.9417 33.6805 27.5983C33.1666 27.255 32.7661 26.7669 32.5295 26.1959C32.293 25.6249 32.2311 24.9965 32.3517 24.3903C32.4723 23.7842 32.7699 23.2273 33.207 22.7903C33.644 22.3533 34.2008 22.0556 34.807 21.935C35.4132 21.8145 36.0415 21.8764 36.6126 22.1129C37.1836 22.3494 37.6716 22.7499 38.015 23.2638C38.3584 23.7777 38.5417 24.3819 38.5417 25C38.5417 25.8288 38.2124 26.6237 37.6264 27.2097C37.0403 27.7958 36.2455 28.125 35.4167 28.125Z" fill="var(--fill-0, #F5F5F5)"/>
</g>
</svg>
