<svg preserveAspectRatio="none" width="100%" height="100%" overflow="visible" style="display: block;" viewBox="0 0 50 50" fill="none" xmlns="http://www.w3.org/2000/svg">
<g id="carbon:machine-learning-model">
<path id="Vector" d="M42.1875 29.6875C44.7719 29.6875 46.875 27.5844 46.875 25C46.875 22.4156 44.7719 20.3125 42.1875 20.3125C41.2212 20.3154 40.2795 20.6173 39.4916 21.1768C38.7038 21.7364 38.1085 22.5261 37.7875 23.4375H28.7719L40.1781 12.0312C40.7906 12.3234 41.4656 12.5 42.1875 12.5C44.7719 12.5 46.875 10.3969 46.875 7.8125C46.875 5.22812 44.7719 3.125 42.1875 3.125C39.6031 3.125 37.5 5.22812 37.5 7.8125C37.5 8.53438 37.6781 9.20937 37.9687 9.82031L25 22.7906V12.5C25 10.7781 26.4016 9.375 28.125 9.375H31.25V6.25H28.125C26.25 6.25 24.5844 7.09844 23.4375 8.40937C22.8563 7.73485 22.137 7.193 21.3283 6.82046C20.5196 6.44792 19.6404 6.25338 18.75 6.25H17.1875C9.43438 6.25 3.125 12.5578 3.125 20.3125V29.6875C3.125 37.4422 9.43438 43.75 17.1875 43.75H18.75C20.625 43.75 22.2906 42.9031 23.4375 41.5906C24.5844 42.9031 26.25 43.75 28.125 43.75H31.25V40.625H28.125C26.4016 40.625 25 39.2234 25 37.5V27.2094L37.9687 40.1797C37.6766 40.7906 37.5 41.4656 37.5 42.1875C37.5 44.7734 39.6031 46.875 42.1875 46.875C44.7719 46.875 46.875 44.7734 46.875 42.1875C46.875 39.6016 44.7719 37.5 42.1875 37.5C41.4914 37.5037 40.805 37.6644 40.1797 37.9703L28.7719 26.5641H37.7875C38.1088 27.4752 38.7042 28.2646 39.492 28.8238C40.2798 29.383 41.2214 29.6847 42.1875 29.6875ZM42.1875 23.4375C42.6019 23.4375 42.9993 23.6021 43.2924 23.8951C43.5854 24.1882 43.75 24.5856 43.75 25C43.75 25.4144 43.5854 25.8118 43.2924 26.1049C42.9993 26.3979 42.6019 26.5625 42.1875 26.5625C41.7731 26.5625 41.3757 26.3979 41.0826 26.1049C40.7896 25.8118 40.625 25.4144 40.625 25C40.625 24.5856 40.7896 24.1882 41.0826 23.8951C41.3757 23.6021 41.7731 23.4375 42.1875 23.4375ZM42.1875 6.25C42.5898 6.268 42.9697 6.44048 43.248 6.73153C43.5263 7.02259 43.6817 7.40979 43.6817 7.8125C43.6817 8.21521 43.5263 8.60241 43.248 8.89347C42.9697 9.18452 42.5898 9.357 42.1875 9.375C41.7731 9.375 41.3757 9.21038 41.0826 8.91735C40.7896 8.62433 40.625 8.2269 40.625 7.8125C40.625 7.3981 40.7896 7.00067 41.0826 6.70765C41.3757 6.41462 41.7731 6.25 42.1875 6.25ZM21.875 18.75H18.75V21.875H21.875V28.125H18.75C16.1656 28.125 14.0625 30.2281 14.0625 32.8125V35.9375H17.1875V32.8125C17.1875 32.3981 17.3521 32.0007 17.6451 31.7076C17.9382 31.4146 18.3356 31.25 18.75 31.25H21.875V37.5C21.875 39.2234 20.4734 40.625 18.75 40.625H17.1875C11.6875 40.625 7.1375 36.5422 6.375 31.25H9.375V28.125H6.25V21.875H10.9375C13.5219 21.875 15.625 19.7719 15.625 17.1875V14.0625H12.5V17.1875C12.5 17.6019 12.3354 17.9993 12.0424 18.2924C11.7493 18.5854 11.3519 18.75 10.9375 18.75H6.375C7.1375 13.4578 11.6875 9.375 17.1875 9.375H18.75C20.4734 9.375 21.875 10.7781 21.875 12.5V18.75ZM43.75 42.1875C43.732 42.5898 43.5595 42.9697 43.2685 43.248C42.9774 43.5263 42.5902 43.6817 42.1875 43.6817C41.7848 43.6817 41.3976 43.5263 41.1065 43.248C40.8155 42.9697 40.643 42.5898 40.625 42.1875C40.625 41.3266 41.3266 40.625 42.1875 40.625C43.0484 40.625 43.75 41.3266 43.75 42.1875Z" fill="var(--fill-0, white)"/>
</g>
</svg>
