<svg preserveAspectRatio="none" width="100%" height="100%" overflow="visible" style="display: block;" viewBox="0 0 88 88" fill="none" xmlns="http://www.w3.org/2000/svg">
<g id="icon">
<path id="Vector" d="M69.85 79.2L59.125 68.5667L53.625 74.0667C52.9528 74.7389 52.0972 75.075 51.0583 75.075C50.0194 75.075 49.1639 74.7389 48.4917 74.0667C47.0861 72.6611 46.3833 70.9194 46.3833 68.8417C46.3833 66.7639 47.0861 65.0222 48.4917 63.6167L63.9833 48.125C65.3889 46.7194 67.1306 46.0167 69.2083 46.0167C71.2861 46.0167 73.0278 46.7194 74.4333 48.125C75.1056 48.7972 75.4417 49.6528 75.4417 50.6917C75.4417 51.7306 75.1056 52.5861 74.4333 53.2583L68.9333 58.7583L79.5667 69.4833C80.3 70.2167 80.6667 71.0722 80.6667 72.05C80.6667 73.0278 80.3 73.8833 79.5667 74.6167L74.9833 79.2C74.25 79.9333 73.3944 80.3 72.4167 80.3C71.4389 80.3 70.5833 79.9333 69.85 79.2ZM79.5667 22.7333L39.05 63.25L39.5083 63.6167C40.9139 65.0222 41.6167 66.7639 41.6167 68.8417C41.6167 70.9194 40.9139 72.6611 39.5083 74.0667C38.8361 74.7389 37.9806 75.075 36.9417 75.075C35.9028 75.075 35.0472 74.7389 34.375 74.0667L28.875 68.5667L18.15 79.2C17.4167 79.9333 16.5611 80.3 15.5833 80.3C14.6056 80.3 13.75 79.9333 13.0167 79.2L8.43333 74.6167C7.7 73.8833 7.33333 73.0278 7.33333 72.05C7.33333 71.0722 7.7 70.2167 8.43333 69.4833L19.0667 58.7583L13.5667 53.2583C12.8944 52.5861 12.5583 51.7306 12.5583 50.6917C12.5583 49.6528 12.8944 48.7972 13.5667 48.125C14.9722 46.7194 16.7139 46.0167 18.7917 46.0167C20.8694 46.0167 22.6111 46.7194 24.0167 48.125L24.3833 48.5833L63.8917 9.075C64.5639 8.40278 65.3437 7.88333 66.231 7.51667C67.1183 7.15 68.0497 6.96667 69.025 6.96667H77C78.0389 6.96667 78.9103 7.31867 79.6143 8.02267C80.3183 8.72667 80.6691 9.59689 80.6667 10.6333V20.075C80.6667 20.5639 80.575 21.0381 80.3917 21.4977C80.2083 21.9572 79.9333 22.3691 79.5667 22.7333ZM22.825 37.125L9.44167 23.7417C8.76944 23.0694 8.25 22.2909 7.88333 21.406C7.51667 20.5211 7.33333 19.5886 7.33333 18.6083V10.6333C7.33333 9.59445 7.68533 8.72422 8.38933 8.02267C9.09333 7.32111 9.96356 6.96911 11 6.96667H18.975C19.9528 6.96667 20.8853 7.15 21.7727 7.51667C22.66 7.88333 23.4386 8.40278 24.1083 9.075L37.5833 22.55C38.3167 23.2833 38.6687 24.1389 38.6393 25.1167C38.61 26.0944 38.2274 26.95 37.4917 27.6833C36.7583 28.3556 35.9028 28.7076 34.925 28.7393C33.9472 28.7711 33.0917 28.4191 32.3583 27.6833L18.975 14.3H14.6667V18.6083L28.05 31.9917C28.7222 32.6639 29.0583 33.5048 29.0583 34.5143C29.0583 35.5239 28.7222 36.3941 28.05 37.125C27.3167 37.8583 26.4464 38.225 25.4393 38.225C24.4322 38.225 23.5608 37.8583 22.825 37.125ZM33.9167 58.025L73.3333 18.6083V14.3H69.025L29.6083 53.7167L33.9167 58.025Z" fill="var(--fill-0, #3C92DD)"/>
</g>
</svg>
