<svg preserveAspectRatio="none" width="100%" height="100%" overflow="visible" style="display: block;" viewBox="0 0 74 74" fill="none" xmlns="http://www.w3.org/2000/svg">
<g id="Group">
<path id="Vector" d="M37 38.8333C38.0125 38.8333 38.8333 38.0125 38.8333 37C38.8333 35.9875 38.0125 35.1667 37 35.1667C35.9875 35.1667 35.1667 35.9875 35.1667 37C35.1667 38.0125 35.9875 38.8333 37 38.8333Z" fill="var(--fill-0, #3C92DD)" stroke="var(--stroke-0, #3C92DD)" stroke-width="8" stroke-linecap="round" stroke-linejoin="round"/>
<path id="Vector_2" d="M11.3333 37C11.3333 40.3706 11.9972 43.7082 13.2871 46.8222C14.577 49.9362 16.4676 52.7657 18.8509 55.1491C21.2343 57.5324 24.0638 59.423 27.1778 60.7129C30.2918 62.0028 33.6294 62.6667 37 62.6667M11.3333 37C11.3333 33.6294 11.9972 30.2918 13.2871 27.1778C14.577 24.0638 16.4676 21.2343 18.8509 18.8509C21.2343 16.4676 24.0638 14.577 27.1778 13.2871C30.2918 11.9972 33.6294 11.3333 37 11.3333M11.3333 37H4M37 62.6667C40.3706 62.6667 43.7082 62.0028 46.8222 60.7129C49.9362 59.423 52.7657 57.5324 55.1491 55.1491C57.5324 52.7657 59.423 49.9362 60.7129 46.8222C62.0028 43.7082 62.6667 40.3706 62.6667 37M37 62.6667V70M62.6667 37C62.6667 33.6294 62.0028 30.2918 60.7129 27.1778C59.423 24.0638 57.5324 21.2343 55.1491 18.8509C52.7657 16.4676 49.9362 14.577 46.8222 13.2871C43.7082 11.9972 40.3706 11.3333 37 11.3333M62.6667 37H70M37 11.3333V4" stroke="var(--stroke-0, #3C92DD)" stroke-width="8" stroke-linecap="round" stroke-linejoin="round"/>
</g>
</svg>
