<svg preserveAspectRatio="none" width="100%" height="100%" overflow="visible" style="display: block;" viewBox="0 0 58.6667 79.9847" fill="none" xmlns="http://www.w3.org/2000/svg">
<g id="Group">
<g id="Vector">
</g>
<path id="Vector_2" fill-rule="evenodd" clip-rule="evenodd" d="M29.3333 7.33333C27.3884 7.33333 25.5232 8.10595 24.1479 9.48122C22.7726 10.8565 22 12.7217 22 14.6667H36.6667C36.6667 12.7217 35.8941 10.8565 34.5188 9.48122C33.1435 8.10595 31.2783 7.33333 29.3333 7.33333ZM19.6313 3.66667C22.2163 1.386 25.6153 0 29.3333 0C33.0513 0 36.4467 1.386 39.0353 3.66667H51.3333C53.2783 3.66667 55.1435 4.43928 56.5188 5.81455C57.8941 7.18982 58.6667 9.05508 58.6667 11V66C58.6667 67.9449 57.8941 69.8102 56.5188 71.1854C55.1435 72.5607 53.2783 73.3333 51.3333 73.3333H7.33333C5.38841 73.3333 3.52315 72.5607 2.14788 71.1854C0.772617 69.8102 0 67.9449 0 66V11C0 9.05508 0.772617 7.18982 2.14788 5.81455C3.52315 4.43928 5.38841 3.66667 7.33333 3.66667H19.6313ZM15.1287 11H6.33331V66.6666H52.3333V11H43.538C43.8411 12.1758 43.9951 13.398 44 14.6667V18.3333C44 19.3058 43.6137 20.2384 42.9261 20.9261C42.2384 21.6137 41.3058 22 40.3333 22H18.3333C17.3609 22 16.4282 21.6137 15.7406 20.9261C15.053 20.2384 14.6667 19.3058 14.6667 18.3333V14.6667C14.6716 13.398 14.8256 12.1758 15.1287 11ZM14.6667 33C14.6667 32.0275 15.053 31.0949 15.7406 30.4073C16.4282 29.7196 17.3609 29.3333 18.3333 29.3333H40.3333C41.3058 29.3333 42.2384 29.7196 42.9261 30.4073C43.6137 31.0949 44 32.0275 44 33C44 33.9725 43.6137 34.9051 42.9261 35.5927C42.2384 36.2804 41.3058 36.6667 40.3333 36.6667H18.3333C17.3609 36.6667 16.4282 36.2804 15.7406 35.5927C15.053 34.9051 14.6667 33.9725 14.6667 33ZM14.6667 47.6667C14.6667 46.6942 15.053 45.7616 15.7406 45.0739C16.4282 44.3863 17.3609 44 18.3333 44H29.3333C30.3058 44 31.2384 44.3863 31.9261 45.0739C32.6137 45.7616 33 46.6942 33 47.6667C33 48.6391 32.6137 49.5718 31.9261 50.2594C31.2384 50.947 30.3058 51.3333 29.3333 51.3333H18.3333C17.3609 51.3333 16.4282 50.947 15.7406 50.2594C15.053 49.5718 14.6667 48.6391 14.6667 47.6667Z" fill="var(--fill-0, #3C92DD)"/>
</g>
</svg>
