<svg preserveAspectRatio="xMidYMid meet" width="100%" height="100%" overflow="visible" style="display: block;" viewBox="0 -9.23 78.6923 90" fill="none" xmlns="http://www.w3.org/2000/svg">
<path id="Vector" d="M39.3462 0C41.2435 0 43.0631 0.753706 44.4047 2.09531C45.7463 3.43692 46.5 5.25653 46.5 7.15385C46.5 9.80077 45.0692 12.1258 42.9231 13.3419V17.8846H46.5C53.1406 17.8846 59.5092 20.5226 64.2049 25.2182C68.9005 29.9138 71.5385 36.2825 71.5385 42.9231H75.1154C76.064 42.9231 76.9739 43.2999 77.6447 43.9707C78.3155 44.6415 78.6923 45.5513 78.6923 46.5V57.2308C78.6923 58.1794 78.3155 59.0892 77.6447 59.76C76.9739 60.4308 76.064 60.8077 75.1154 60.8077H71.5385V64.3846C71.5385 66.2819 70.7848 68.1015 69.4431 69.4431C68.1015 70.7847 66.2819 71.5385 64.3846 71.5385H14.3077C12.4104 71.5385 10.5908 70.7847 9.24916 69.4431C7.90755 68.1015 7.15385 66.2819 7.15385 64.3846V60.8077H3.57692C2.62826 60.8077 1.71846 60.4308 1.04766 59.76C0.376853 59.0892 0 58.1794 0 57.2308V46.5C0 45.5513 0.376853 44.6415 1.04766 43.9707C1.71846 43.2999 2.62826 42.9231 3.57692 42.9231H7.15385C7.15385 36.2825 9.79182 29.9138 14.4874 25.2182C19.1831 20.5226 25.5517 17.8846 32.1923 17.8846H35.7692V13.3419C33.6231 12.1258 32.1923 9.80077 32.1923 7.15385C32.1923 5.25653 32.946 3.43692 34.2876 2.09531C35.6292 0.753706 37.4488 0 39.3462 0ZM23.25 39.3462C20.8784 39.3462 18.6038 40.2883 16.9268 41.9653C15.2498 43.6423 14.3077 45.9168 14.3077 48.2885C14.3077 50.6601 15.2498 52.9346 16.9268 54.6116C18.6038 56.2886 20.8784 57.2308 23.25 57.2308C25.6216 57.2308 27.8962 56.2886 29.5732 54.6116C31.2502 52.9346 32.1923 50.6601 32.1923 48.2885C32.1923 45.9168 31.2502 43.6423 29.5732 41.9653C27.8962 40.2883 25.6216 39.3462 23.25 39.3462ZM55.4423 39.3462C53.0707 39.3462 50.7962 40.2883 49.1191 41.9653C47.4421 43.6423 46.5 45.9168 46.5 48.2885C46.5 50.6601 47.4421 52.9346 49.1191 54.6116C50.7962 56.2886 53.0707 57.2308 55.4423 57.2308C57.814 57.2308 60.0885 56.2886 61.7655 54.6116C63.4425 52.9346 64.3846 50.6601 64.3846 48.2885C64.3846 45.9168 63.4425 43.6423 61.7655 41.9653C60.0885 40.2883 57.814 39.3462 55.4423 39.3462Z" fill="var(--fill-0, #2A2B2D)"/>
</svg>
