<svg preserveAspectRatio="none" width="100%" height="100%" overflow="visible" style="display: block;" viewBox="0 0 108.071 90" fill="none" xmlns="http://www.w3.org/2000/svg">
<g id="icon">
<path id="Vector" d="M58.5531 13.376C58.5531 10.8771 56.5343 8.85827 54.0354 8.85827C51.5366 8.85827 49.5177 10.8771 49.5177 13.376V22.4114H35.9646C28.4821 22.4114 22.4114 28.4821 22.4114 35.9646V67.5886C22.4114 75.071 28.4821 81.1417 35.9646 81.1417H72.1063C79.5888 81.1417 85.6594 75.071 85.6594 67.5886V35.9646C85.6594 28.4821 79.5888 22.4114 72.1063 22.4114H58.5531V13.376ZM31.4468 65.3297C31.4468 63.452 32.9575 61.9414 34.8351 61.9414H39.3529C41.2305 61.9414 42.7411 63.452 42.7411 65.3297C42.7411 67.2074 41.2305 68.718 39.3529 68.718H34.8351C32.9575 68.718 31.4468 67.2074 31.4468 65.3297ZM48.3883 65.3297C48.3883 63.452 49.8989 61.9414 51.7766 61.9414H56.2943C58.172 61.9414 59.6826 63.452 59.6826 65.3297C59.6826 67.2074 58.172 68.718 56.2943 68.718H51.7766C49.8989 68.718 48.3883 67.2074 48.3883 65.3297ZM65.3297 65.3297C65.3297 63.452 66.8403 61.9414 68.718 61.9414H73.2357C75.1134 61.9414 76.624 63.452 76.624 65.3297C76.624 67.2074 75.1134 68.718 73.2357 68.718H68.718C66.8403 68.718 65.3297 67.2074 65.3297 65.3297ZM40.4823 38.2234C44.2235 38.2234 47.2589 41.2588 47.2589 45C47.2589 48.7412 44.2235 51.7766 40.4823 51.7766C36.741 51.7766 33.7057 48.7412 33.7057 45C33.7057 41.2588 36.741 38.2234 40.4823 38.2234ZM60.812 45C60.812 41.2588 63.8473 38.2234 67.5886 38.2234C71.3298 38.2234 74.3652 41.2588 74.3652 45C74.3652 48.7412 71.3298 51.7766 67.5886 51.7766C63.8473 51.7766 60.812 48.7412 60.812 45ZM17.8937 45C17.8937 42.5011 15.8748 40.4823 13.376 40.4823C10.8771 40.4823 8.85827 42.5011 8.85827 45V58.5531C8.85827 61.052 10.8771 63.0709 13.376 63.0709C15.8748 63.0709 17.8937 61.052 17.8937 58.5531V45ZM94.6949 40.4823C92.196 40.4823 90.1772 42.5011 90.1772 45V58.5531C90.1772 61.052 92.196 63.0709 94.6949 63.0709C97.1937 63.0709 99.2126 61.052 99.2126 58.5531V45C99.2126 42.5011 97.1937 40.4823 94.6949 40.4823Z" fill="var(--fill-0, #3C92DD)"/>
</g>
</svg>
