<svg preserveAspectRatio="xMidYMid meet" width="100%" height="100%" overflow="visible" style="display: block;" viewBox="0 0 82.4299 90" fill="none" xmlns="http://www.w3.org/2000/svg">
<g id="icon">
<path id="Vector" d="M43.0373 26.7034H66.7471C70.7637 26.7034 74.0186 29.9819 74.0186 34.0105V59.6346H48.5046V66.9527H66.7471C70.7637 66.9527 74.0186 70.2019 74.0186 74.2707V81.5888H8.41111V74.2707C8.41111 70.2275 11.666 66.9527 15.6826 66.9527H33.9251V59.6346H8.41111V34.0105C8.41111 29.9746 11.666 26.7034 15.6826 26.7034H39.3924V19.0744C38.1765 18.6428 37.1516 17.7936 36.4991 16.6768C35.8465 15.5601 35.6082 14.2477 35.8263 12.9716C36.0444 11.6956 36.7048 10.538 37.6909 9.70344C38.6769 8.86892 39.9251 8.41121 41.2148 8.41121C42.5046 8.41121 43.7527 8.86892 44.7388 9.70344C45.7249 10.538 46.3853 11.6956 46.6034 12.9716C46.8215 14.2477 46.5832 15.5601 45.9306 16.6768C45.278 17.7936 44.2532 18.6428 43.0373 19.0744V26.7034ZM28.4578 48.6576C29.9078 48.6576 31.2985 48.0793 32.3238 47.05C33.3491 46.0207 33.9251 44.6247 33.9251 43.169C33.9251 41.7134 33.3491 40.3174 32.3238 39.2881C31.2985 38.2588 29.9078 37.6805 28.4578 37.6805C27.0078 37.6805 25.6172 38.2588 24.5919 39.2881C23.5666 40.3174 22.9905 41.7134 22.9905 43.169C22.9905 44.6247 23.5666 46.0207 24.5919 47.05C25.6172 48.0793 27.0078 48.6576 28.4578 48.6576ZM53.9719 48.6576C55.4219 48.6576 56.8125 48.0793 57.8378 47.05C58.8631 46.0207 59.4391 44.6247 59.4391 43.169C59.4391 41.7134 58.8631 40.3174 57.8378 39.2881C56.8125 38.2588 55.4219 37.6805 53.9719 37.6805C52.5218 37.6805 51.1312 38.2588 50.1059 39.2881C49.0806 40.3174 48.5046 41.7134 48.5046 43.169C48.5046 44.6247 49.0806 46.0207 50.1059 47.05C51.1312 48.0793 52.5218 48.6576 53.9719 48.6576Z" fill="var(--fill-0, #2A2B2D)"/>
</g>
</svg>
