<svg preserveAspectRatio="xMidYMid meet" width="88" height="88" viewBox="0 0 86.4796 90" fill="none" xmlns="http://www.w3.org/2000/svg">
<g id="Group">
<path id="Vector" d="M66.5823 47.4516C65.3199 57.9638 58.4347 62.1642 55.4611 65.2134C52.483 68.2715 53.0164 68.8805 53.2164 73.3654C53.2498 73.9203 53.1692 74.4761 52.9796 74.9987C52.79 75.5212 52.4954 75.9994 52.1139 76.4038C51.7324 76.8081 51.2722 77.1301 50.7616 77.3498C50.251 77.5696 49.7008 77.6824 49.1449 77.6814H37.3303C36.7748 77.6804 36.2253 77.5663 35.7154 77.346C35.2054 77.1256 34.7457 76.8037 34.3643 76.3998C33.9829 75.9959 33.6877 75.5186 33.4969 74.9969C33.3061 74.4752 33.2235 73.9201 33.2543 73.3654C33.2543 68.9649 33.6633 67.9426 31.0141 65.2134C27.636 61.8353 19.6885 57.0659 19.6885 43.949C19.6682 40.6909 20.3231 37.4639 21.6118 34.4714C22.9006 31.4789 24.7953 28.7859 27.1766 26.5621C29.5578 24.3382 32.3739 22.6318 35.4474 21.5503C38.5209 20.4688 41.785 20.0358 45.0342 20.2785C48.2833 20.5212 51.4469 21.4343 54.3256 22.9604C57.2044 24.4864 59.7357 26.5922 61.7602 29.1452C63.7846 31.6981 65.2582 34.6427 66.0882 37.7934C66.9181 40.9441 67.0863 44.2326 66.5823 47.4516Z" stroke="#3C92DD" stroke-width="5" stroke-linecap="round" stroke-linejoin="round"/>
<path id="Vector_2" d="M36.3924 77.4367V84.1574C36.3924 85.9932 37.4148 87.5 38.6727 87.5H47.7981C49.0649 87.5 50.0828 85.9887 50.0828 84.1574V77.4367M39.7706 30.5874C37.146 30.5886 34.6293 31.632 32.7739 33.4883C30.9185 35.3445 29.8762 37.8616 29.8762 40.4862M75.8277 44.8467H83.9796M67.6224 18.1239L73.4052 12.341M72.0673 67.4979L77.8501 73.2763M43.2376 2.5V9.0918M13.19 12.3366L18.9328 18.1239M8.7451 73.2763L14.4879 67.4979M10.6475 44.8467H2.5" stroke="#3C92DD" stroke-width="5" stroke-linecap="round" stroke-linejoin="round"/>
</g>
</svg>
