<svg preserveAspectRatio="xMidYMid meet" width="88" height="88" viewBox="0 0 88 88" fill="none" xmlns="http://www.w3.org/2000/svg">
<g id="icon">
<path id="Vector" fill-rule="evenodd" clip-rule="evenodd" d="M48.6957 10.18H44.3043L41.7888 20.2342L39.2655 21.0142C37.7951 21.4673 36.3706 22.0575 35.0106 22.777L32.6745 24.0133L23.7825 18.6781L20.6781 21.7864L26.0133 30.6784L24.777 33.0106C24.0561 34.3704 23.4646 35.795 23.0103 37.2655L22.2342 39.7888L12.18 42.3043V46.6957L22.2342 49.2112L23.0142 51.7345C23.464 53.2113 24.0516 54.6296 24.777 55.9894L26.0133 58.3255L20.6781 67.2175L23.7864 70.3219L32.6784 64.9867L35.0106 66.223C36.3704 66.9458 37.7887 67.5347 39.2655 67.9897L41.7888 68.7658L44.3043 78.82H48.6957L51.2112 68.7658L53.7345 67.9858C55.2049 67.5327 56.6294 66.9425 57.9894 66.223L60.3255 64.9867L69.2175 70.3219L72.3219 67.2136L66.9867 58.3216L68.223 55.9894C68.9458 54.6296 69.5347 53.2113 69.9897 51.7345L70.7658 49.2112L80.82 46.6957V42.3043L70.7658 39.7888L69.9858 37.2655C69.5327 35.7951 68.9425 34.3706 68.223 33.0106L66.9867 30.6745L72.3219 21.7825L69.2136 18.6781L60.3216 24.0133L57.9894 22.777C56.6296 22.0561 55.205 21.4646 53.7345 21.0103L51.2112 20.2342L48.6957 10.18ZM60.1812 18.643L67.3299 14.353C68.0753 13.9059 68.9487 13.7207 69.8115 13.8266C70.6742 13.9326 71.4768 14.3238 72.0918 14.938L76.062 18.9082C76.6762 19.5232 77.0674 20.3258 77.1734 21.1886C77.2793 22.0513 77.0941 22.9247 76.647 23.6701L72.357 30.8188C73.215 32.4308 73.917 34.1208 74.463 35.8888L82.5477 37.9129C83.3911 38.1242 84.1397 38.6112 84.6745 39.2966C85.2094 39.982 85.5 40.8265 85.5 41.6959V47.3041C85.5 48.1735 85.2094 49.018 84.6745 49.7034C84.1397 50.3888 83.3911 50.8758 82.5477 51.0871L74.463 53.1112C73.917 54.8792 73.215 56.5692 72.357 58.1812L76.647 65.3299C77.0941 66.0753 77.2793 66.9487 77.1734 67.8115C77.0674 68.6742 76.6762 69.4768 76.062 70.0918L72.0918 74.062C71.4768 74.6762 70.6742 75.0674 69.8115 75.1734C68.9487 75.2793 68.0753 75.0941 67.3299 74.647L60.1812 70.357C58.5692 71.215 56.8792 71.917 55.1112 72.463L53.0871 80.5477C52.8758 81.3911 52.3888 82.1397 51.7034 82.6745C51.018 83.2094 50.1735 83.5 49.3041 83.5H43.6959C42.8265 83.5 41.982 83.2094 41.2966 82.6745C40.6112 82.1397 40.1242 81.3911 39.9129 80.5477L37.8888 72.463C36.1365 71.9215 34.439 71.2164 32.8188 70.357L25.6701 74.647C24.9247 75.0941 24.0513 75.2793 23.1886 75.1734C22.3258 75.0674 21.5232 74.6762 20.9082 74.062L16.938 70.0918C16.3238 69.4768 15.9326 68.6742 15.8266 67.8115C15.7207 66.9487 15.9059 66.0753 16.353 65.3299L20.643 58.1812C19.7836 56.561 19.0785 54.8635 18.537 53.1112L10.4523 51.0871C9.60959 50.876 8.86148 50.3896 8.32665 49.7049C7.79183 49.0203 7.50089 48.1768 7.5 47.308V41.6998C7.50002 40.8304 7.79056 39.9859 8.32546 39.3005C8.86035 38.6151 9.60894 38.1281 10.4523 37.9168L18.537 35.8927C19.083 34.1247 19.785 32.4347 20.643 30.8227L16.353 23.674C15.9059 22.9286 15.7207 22.0552 15.8266 21.1925C15.9326 20.3297 16.3238 19.5271 16.938 18.9121L20.9082 14.938C21.5232 14.3238 22.3258 13.9326 23.1886 13.8266C24.0513 13.7207 24.9247 13.9059 25.6701 14.353L32.8188 18.643C34.4308 17.785 36.1208 17.083 37.8888 16.537L39.9129 8.4523C40.124 7.60959 40.6104 6.86148 41.2951 6.32665C41.9797 5.79183 42.8232 5.50089 43.692 5.5H49.3002C50.1696 5.50002 51.0141 5.79056 51.6995 6.32546C52.3849 6.86035 52.8719 7.60894 53.0832 8.4523L55.1073 16.537C56.8753 17.083 58.5653 17.785 60.1773 18.643H60.1812ZM46.5 55.42C49.3962 55.42 52.1737 54.2695 54.2216 52.2216C56.2695 50.1737 57.42 47.3962 57.42 44.5C57.42 41.6038 56.2695 38.8263 54.2216 36.7784C52.1737 34.7305 49.3962 33.58 46.5 33.58C43.6038 33.58 40.8263 34.7305 38.7784 36.7784C36.7305 38.8263 35.58 41.6038 35.58 44.5C35.58 47.3962 36.7305 50.1737 38.7784 52.2216C40.8263 54.2695 43.6038 55.42 46.5 55.42ZM46.5 60.1C42.3626 60.1 38.3947 58.4564 35.4691 55.5309C32.5436 52.6053 30.9 48.6374 30.9 44.5C30.9 40.3626 32.5436 36.3947 35.4691 33.4691C38.3947 30.5436 42.3626 28.9 46.5 28.9C50.6374 28.9 54.6053 30.5436 57.5309 33.4691C60.4564 36.3947 62.1 40.3626 62.1 44.5C62.1 48.6374 60.4564 52.6053 57.5309 55.5309C54.6053 58.4564 50.6374 60.1 46.5 60.1Z" fill="#3C92DD"/>
</g>
</svg>
