<svg width="88" height="88" viewBox="0 0 88 88" fill="none" xmlns="http://www.w3.org/2000/svg">
<path d="M73.9644 24.7501H67.1407L50.3987 41.4848C50.9754 42.9543 51.0284 44.5776 50.5489 46.0817C50.0694 47.5858 49.0867 48.8789 47.7659 49.7436C46.4451 50.6082 44.8669 50.9918 43.2966 50.8297C41.7263 50.6676 40.2597 49.9697 39.1434 48.8534C38.0272 47.7372 37.3293 46.2706 37.1672 44.7003C37.0051 43.13 37.3886 41.5517 38.2533 40.231C39.118 38.9102 40.4111 37.9274 41.9152 37.4479C43.4192 36.9685 45.0425 37.0215 46.5121 37.5981L63.2504 20.8598V14.0361C63.2508 13.123 63.6134 12.2474 64.2587 11.6014L70.6021 5.25812C70.7195 5.13997 70.8668 5.05604 71.0283 5.01534C71.1898 4.97464 71.3594 4.97871 71.5187 5.02712C71.8451 5.12245 72.0871 5.39378 72.1531 5.72745L73.8397 14.1644L82.2731 15.8511C82.6031 15.9171 82.8744 16.1591 82.9697 16.4854C83.0179 16.644 83.0222 16.8126 82.9822 16.9733C82.9421 17.1341 82.8593 17.281 82.7424 17.3984L76.3954 23.7418C75.7504 24.3862 74.8762 24.7488 73.9644 24.7501Z" fill="#3C92DD"/>
<path d="M9.625 44C9.625 53.1168 13.2466 61.8603 19.6932 68.3068C26.1398 74.7534 34.8832 78.375 44 78.375C48.5142 78.375 52.9842 77.4859 57.1547 75.7584C61.3253 74.0309 65.1148 71.4988 68.3068 68.3068C71.4988 65.1148 74.0309 61.3253 75.7584 57.1548C77.4859 52.9842 78.375 48.5142 78.375 44C78.375 40.7074 77.913 37.5247 77.0513 34.5144C76.8801 33.8232 76.9836 33.0925 77.3401 32.476C77.6966 31.8596 78.2784 31.4055 78.9629 31.2093C79.6475 31.0131 80.3814 31.0901 81.0104 31.4241C81.6393 31.7581 82.1142 32.323 82.335 33C83.3397 36.498 83.875 40.1867 83.875 44C83.875 66.022 66.022 83.875 44 83.875C21.978 83.875 4.125 66.022 4.125 44C4.125 21.978 21.978 4.12502 44 4.12502C47.7217 4.12135 51.4213 4.63835 55 5.66135C55.3489 5.75923 55.6751 5.92511 55.9597 6.14946C56.2443 6.37381 56.4817 6.65219 56.6584 6.96862C56.8351 7.28504 56.9474 7.63326 56.9891 7.99326C57.0307 8.35326 57.0007 8.71794 56.901 9.06633C56.8012 9.41472 56.6335 9.73995 56.4076 10.0233C56.1817 10.3067 55.9021 10.5426 55.5847 10.7176C55.2673 10.8925 54.9185 11.003 54.5582 11.0426C54.198 11.0823 53.8335 11.0504 53.4857 10.9487C50.4008 10.0682 47.2081 9.62264 44 9.62502C34.8832 9.62502 26.1398 13.2467 19.6932 19.6932C13.2466 26.1398 9.625 34.8832 9.625 44Z" fill="#3C92DD"/>
<path d="M26.1263 44.0002C26.1366 46.4287 26.6417 48.8297 27.6108 51.0565C28.5799 53.2833 29.9927 55.2892 31.7629 56.9518C33.5331 58.6143 35.6236 59.8986 37.9068 60.7263C40.1899 61.554 42.6178 61.9076 45.0422 61.7657C47.4666 61.6237 49.8366 60.9891 52.0076 59.9006C54.1785 58.8121 56.1048 57.2926 57.6689 55.4348C59.233 53.577 60.402 51.4199 61.1046 49.0952C61.8072 46.7705 62.0286 44.327 61.7553 41.9139C61.6783 41.4252 61.735 40.9247 61.9192 40.4656C62.1035 40.0064 62.4085 39.6056 62.802 39.3057C63.1955 39.0058 63.6628 38.8179 64.1544 38.762C64.646 38.706 65.1435 38.7841 65.5943 38.9879C66.5147 39.3985 67.1343 40.2749 67.215 41.2795C67.7843 46.1021 66.8371 50.9823 64.5049 55.2416C62.1728 59.501 58.5716 62.928 54.2019 65.0463C49.8322 67.1646 44.9111 67.869 40.1227 67.0615C35.3342 66.254 30.9163 63.9747 27.483 60.5405C24.0506 57.1101 21.7708 52.6966 20.9597 47.9121C20.1487 43.1276 20.8465 38.2093 22.9566 33.8393C25.0666 29.4693 28.4842 25.8642 32.7354 23.524C36.9866 21.1838 41.8607 20.2246 46.6817 20.7792C47.0461 20.813 47.4001 20.9193 47.723 21.0917C48.0459 21.2641 48.3311 21.4992 48.5619 21.7833C48.7927 22.0673 48.9645 22.3946 49.0672 22.7459C49.1698 23.0973 49.2014 23.4655 49.1599 23.8292C49.1184 24.1928 49.0047 24.5446 48.8255 24.8637C48.6464 25.1829 48.4053 25.463 48.1164 25.6878C47.8275 25.9126 47.4967 26.0774 47.1433 26.1727C46.7899 26.2679 46.421 26.2917 46.0583 26.2425C43.5541 25.953 41.017 26.1964 38.6134 26.9566C36.2098 27.7168 33.9942 28.9767 32.112 30.6536C30.2297 32.3306 28.7234 34.3866 27.6918 36.6868C26.6602 38.987 26.1267 41.4793 26.1263 44.0002Z" fill="#3C92DD"/>
</svg>
