<svg preserveAspectRatio="xMidYMid meet" width="88" height="88" viewBox="0 0 88 88" fill="none" xmlns="http://www.w3.org/2000/svg">
<g id="icon">
<path id="Vector" d="M44 69.1429C44 70.381 43.7561 71.6071 43.2823 72.751C42.8085 73.8949 42.114 74.9343 41.2384 75.8099C40.3629 76.6854 39.3235 77.3799 38.1796 77.8537C37.0357 78.3276 35.8096 78.5714 34.5714 78.5714C32.0708 78.5714 29.6726 77.5781 27.9044 75.8099C26.1362 74.0417 25.1429 71.6435 25.1429 69.1429M44 69.1429C44 67.9047 43.7561 66.6786 43.2823 65.5347C42.8085 64.3908 42.114 63.3514 41.2384 62.4759C40.3629 61.6003 39.3235 60.9058 38.1796 60.432C37.0357 59.9582 35.8096 59.7143 34.5714 59.7143M44 69.1429H84.8571M34.5714 59.7143C32.0708 59.7143 29.6726 60.7077 27.9044 62.4759C26.1362 64.2441 25.1429 66.6422 25.1429 69.1429M34.5714 59.7143V6.28571M25.1429 69.1429H3.14286M84.8571 69.1429L72.2857 56.5714M84.8571 69.1429L72.2857 81.7143M34.5714 6.28571L62.8571 22L34.5714 37.7143V6.28571Z" stroke="#3C92DD" stroke-width="5" stroke-linecap="round" stroke-linejoin="round"/>
</g>
</svg>
