<svg preserveAspectRatio="xMidYMid meet" width="88" height="88" viewBox="0 0 88 88" fill="none" xmlns="http://www.w3.org/2000/svg">
<g id="icon">
<path id="Vector" d="M24.75 22C26.2688 22 27.5 20.7688 27.5 19.25C27.5 17.7312 26.2688 16.5 24.75 16.5C23.2312 16.5 22 17.7312 22 19.25C22 20.7688 23.2312 22 24.75 22Z" fill="#3C92DD"/>
<path id="Vector_2" d="M69.25 60V49C69.25 47.5413 68.6705 46.1424 67.6391 45.1109C66.6076 44.0795 65.2087 43.5 63.75 43.5H41.75V32.5H66.5C67.9587 32.5 69.3576 31.9205 70.3891 30.8891C71.4205 29.8576 72 28.4587 72 27V10.5C72 9.04131 71.4205 7.64236 70.3891 6.61091C69.3576 5.57946 67.9587 5 66.5 5H11.5C10.0413 5 8.64236 5.57946 7.61091 6.61091C6.57946 7.64236 6 9.04131 6 10.5V27C6 28.4587 6.57946 29.8576 7.61091 30.8891C8.64236 31.9205 10.0413 32.5 11.5 32.5H36.25V43.5H14.25C12.7913 43.5 11.3924 44.0795 10.3609 45.1109C9.32946 46.1424 8.75 47.5413 8.75 49V60H6C4.54131 60 3.14236 60.5795 2.11091 61.6109C1.07946 62.6424 0.5 64.0413 0.5 65.5V76.5C0.5 77.9587 1.07946 79.3576 2.11091 80.3891C3.14236 81.4205 4.54131 82 6 82H17C18.4587 82 19.8576 81.4205 20.8891 80.3891C21.9205 79.3576 22.5 77.9587 22.5 76.5V65.5C22.5 64.0413 21.9205 62.6424 20.8891 61.6109C19.8576 60.5795 18.4587 60 17 60H14.25V49H36.25V60H33.5C32.0413 60 30.6424 60.5795 29.6109 61.6109C28.5795 62.6424 28 64.0413 28 65.5V76.5C28 77.9587 28.5795 79.3576 29.6109 80.3891C30.6424 81.4205 32.0413 82 33.5 82H44.5C45.9587 82 47.3576 81.4205 48.3891 80.3891C49.4205 79.3576 50 77.9587 50 76.5V65.5C50 64.0413 49.4205 62.6424 48.3891 61.6109C47.3576 60.5795 45.9587 60 44.5 60H41.75V49H63.75V60H61C59.5413 60 58.1424 60.5795 57.1109 61.6109C56.0795 62.6424 55.5 64.0413 55.5 65.5V76.5C55.5 77.9587 56.0795 79.3576 57.1109 80.3891C58.1424 81.4205 59.5413 82 61 82H72C73.4587 82 74.8576 81.4205 75.8891 80.3891C76.9205 79.3576 77.5 77.9587 77.5 76.5V65.5C77.5 64.0413 76.9205 62.6424 75.8891 61.6109C74.8576 60.5795 73.4587 60 72 60H69.25ZM17 76.5H6V65.5H17V76.5ZM44.5 65.5V76.5H33.5V65.5H44.5ZM11.5 27V10.5H66.5V27H11.5ZM72 76.5H61V65.5H72V76.5Z" fill="#3C92DD"/>
</g>
</svg>
