<svg width="88" height="88" viewBox="0 0 88 88" fill="none" xmlns="http://www.w3.org/2000/svg">
<g clip-path="url(#clip0_1489_3210)">
<path d="M84.7697 37.6705V10.5602C84.7697 7.85735 83.0474 5.4122 80.4137 4.80249C67.9492 1.90478 53.1023 3.31278 44.0006 9.37849M44.0006 9.37849V37.6642M44.0006 9.37849C34.8989 3.31278 20.052 1.90478 7.58745 4.80878C4.94745 5.41849 3.23145 7.85735 3.23145 10.5665V62.3231C3.23145 64.4602 5.33716 65.9876 7.42402 65.4911C15.3754 63.6179 24.3074 63.4922 32.1143 65.2271M84.2229 84.2854L76.7617 76.8242M63.8006 81.1425C74.8634 81.1425 81.0863 74.9196 81.0863 63.8568C81.0863 52.7939 74.8634 46.5711 63.8006 46.5711C52.7377 46.5711 46.5149 52.7939 46.5149 63.8568C46.5149 74.9196 52.7377 81.1425 63.8006 81.1425Z" stroke="#3C92DD" stroke-width="6.28571" stroke-linecap="round" stroke-linejoin="round"/>
</g>
<defs>
<clipPath id="clip0_1489_3210">
<rect width="88" height="88" fill="white"/>
</clipPath>
</defs>
</svg>
