<svg preserveAspectRatio="none" width="100%" height="100%" overflow="visible" style="display: block;" viewBox="0 0 68.5976 57.1646" fill="none" xmlns="http://www.w3.org/2000/svg">
<path id="Vector" d="M48.0183 49.5427V57.1646H0V49.5427C0 49.5427 0 34.2988 24.0091 34.2988C48.0183 34.2988 48.0183 49.5427 48.0183 49.5427ZM36.0137 13.3385C36.0137 10.7004 35.3097 8.1216 33.9906 5.92811C32.6715 3.73463 30.7966 2.02502 28.6031 1.01546C26.4095 0.0059142 23.9958 -0.25823 21.6672 0.256434C19.3385 0.771099 17.1995 2.04146 15.5206 3.90686C13.8418 5.77227 12.6984 8.14894 12.2352 10.7363C11.772 13.3237 12.0098 16.0056 12.9184 18.4429C13.827 20.8802 15.3656 22.9633 17.3398 24.429C19.3139 25.8946 21.6349 26.6769 24.0091 26.6769C27.193 26.6769 30.2464 25.2716 32.4977 22.7702C34.749 20.2687 36.0137 16.8761 36.0137 13.3385ZM47.8125 34.2988C49.921 36.1119 51.6463 38.4163 52.867 41.05C54.0877 43.6837 54.7742 46.5825 54.8781 49.5427V57.1646H68.5976V49.5427C68.5976 49.5427 68.5976 35.7089 47.8125 34.2988ZM44.5884 0.00014023C42.2279 -0.0120592 39.9196 0.771979 37.9688 2.24861C40.0522 5.48312 41.1725 9.36096 41.1725 13.3385C41.1725 17.3161 40.0522 21.1939 37.9688 24.4284C39.9196 25.9051 42.2279 26.6891 44.5884 26.6769C47.7722 26.6769 50.8256 25.2716 53.0769 22.7702C55.3282 20.2687 56.593 16.8761 56.593 13.3385C56.593 9.80096 55.3282 6.40829 53.0769 3.90686C50.8256 1.40543 47.7722 0.00014023 44.5884 0.00014023Z" fill="var(--fill-0, #F5F5F5)"/>
</svg>
