<svg preserveAspectRatio="none" width="100%" height="100%" overflow="visible" style="display: block;" viewBox="0 0 40.8639 40.6999" fill="none" xmlns="http://www.w3.org/2000/svg">
<g id="Group">
<path id="Vector" d="M2.27879 38.3586L15.5371 25.1003M32.233 19.2045L28.2642 31.1128C28.2006 31.3033 28.092 31.4756 27.9477 31.6152C27.8034 31.7548 27.6275 31.8576 27.435 31.9149L3.10588 39.1482C2.88669 39.2133 2.65385 39.217 2.43269 39.159C2.21153 39.1009 2.01053 38.9834 1.85156 38.819C1.69259 38.6547 1.58174 38.4499 1.53107 38.2269C1.48041 38.0039 1.49187 37.7714 1.56421 37.5545L9.46421 13.8586C9.52083 13.6885 9.61339 13.5325 9.73561 13.4013C9.85783 13.2701 10.0068 13.1667 10.1725 13.0982L21.3955 8.47737C21.6236 8.38314 21.8746 8.35857 22.1167 8.40677C22.3588 8.45497 22.5812 8.57378 22.7559 8.74821L31.9309 17.9253C32.095 18.0894 32.2103 18.296 32.2636 18.522C32.317 18.7479 32.3064 18.9842 32.233 19.2045Z" stroke="var(--stroke-0, #F5F5F5)" stroke-width="3" stroke-linecap="round" stroke-linejoin="round"/>
<path id="Vector_2" d="M33.7517 2.06695L38.6767 6.99196C39.0468 7.34604 39.3424 7.77048 39.5463 8.24038C39.7501 8.71027 39.858 9.21615 39.8637 9.72831C39.8693 10.2405 39.7726 10.7486 39.5793 11.2229C39.3859 11.6972 39.0997 12.1281 38.7375 12.4902C38.3753 12.8524 37.9444 13.1386 37.4702 13.332C36.9959 13.5254 36.4877 13.6221 35.9756 13.6164C35.4634 13.6108 34.9575 13.5029 34.4876 13.299C34.0177 13.0952 33.5933 12.7996 33.2392 12.4295L28.3121 7.50446C27.6172 6.77809 27.2343 5.8085 27.2454 4.80331C27.2565 3.79812 27.6608 2.83724 28.3716 2.12642C29.0824 1.4156 30.0433 1.01135 31.0485 1.00024C32.0537 0.989121 33.0253 1.37202 33.7517 2.06695Z" fill="var(--fill-0, #F5F5F5)" stroke="var(--stroke-0, #F5F5F5)" stroke-width="2" stroke-linecap="round" stroke-linejoin="round"/>
<path id="Vector_3" d="M19.9559 20.6795C19.6676 20.381 19.3228 20.1429 18.9415 19.9791C18.5603 19.8154 18.1502 19.7292 17.7353 19.7255C17.3203 19.7219 16.9088 19.801 16.5248 19.9581C16.1407 20.1153 15.7918 20.3473 15.4984 20.6407C15.205 20.9341 14.9729 21.283 14.8158 21.6671C14.6587 22.0512 14.5796 22.4626 14.5832 22.8776C14.5868 23.2925 14.673 23.7026 14.8368 24.0838C15.0006 24.4651 15.2387 24.8099 15.5371 25.0982C16.1265 25.6675 16.9159 25.9824 17.7353 25.9753C18.5546 25.9682 19.3384 25.6395 19.9178 25.0601C20.4972 24.4807 20.8259 23.6969 20.833 22.8776C20.8401 22.0582 20.5251 21.2688 19.9559 20.6795Z" stroke="var(--stroke-0, #F5F5F5)" stroke-width="3" stroke-linecap="round" stroke-linejoin="round"/>
</g>
</svg>
