<svg width="211" height="66" viewBox="0 0 211 66" fill="none" xmlns="http://www.w3.org/2000/svg">
<path d="M35.5469 0L14.3055 52.1283H0L21.2686 0H35.5469Z" fill="#FFB71B"/>
<path d="M39.0282 1.66626L60.6083 52.1283H45.2868L31.7129 19.1959L39.0282 1.66626Z" fill="white"/>
<path d="M86.1447 14.7795C90.4797 14.7795 93.7038 16.0394 95.8172 18.5727C97.944 21.1059 99.0007 24.9261 99.0007 30.0333V51.8166H87.8516V30.5616C87.8516 28.1051 87.3955 26.3124 86.4834 25.1835C85.5757 24.0591 84.1533 23.4902 82.2432 23.4902C79.9267 23.4902 78.0843 24.2352 76.6755 25.7119C75.2756 27.193 74.5757 29.1618 74.5757 31.6183V51.9521H63.4131V15.7414H74.2641V20.8892C75.5375 18.9249 77.2038 17.4212 79.2494 16.3916C81.2814 15.3621 83.5798 14.8473 86.1447 14.8473V14.7795ZM125.702 30.5481C129.386 31.388 132.082 32.6478 133.789 34.3412C135.487 36.0391 136.336 38.3375 136.336 41.2365C136.336 44.7316 134.945 47.4726 132.163 49.4595C129.373 51.4644 125.552 52.4533 120.676 52.4533C117.33 52.4533 114.268 52.074 111.491 51.3154C108.7 50.5568 106.302 49.4595 104.284 48.0371L107.251 40.3695C109.22 41.6971 111.387 42.7312 113.753 43.4718C116.11 44.2033 118.495 44.5691 120.906 44.5691C122.622 44.5691 123.963 44.2891 124.929 43.7292C125.887 43.1602 126.365 42.3835 126.365 41.3991C126.365 40.5231 126.036 39.8367 125.376 39.34C124.699 38.8523 123.466 38.4053 121.637 38.0124L115.731 36.6848C112.222 35.8991 109.648 34.6934 108.009 33.0407C106.37 31.4015 105.544 29.1392 105.544 26.2944C105.544 24.0456 106.194 22.0407 107.495 20.3338C108.795 18.6133 110.637 17.2586 113.022 16.2697C115.419 15.2943 118.129 14.8066 121.177 14.8066C123.796 14.8066 126.334 15.1995 128.79 15.9852C131.242 16.7709 133.464 17.8682 135.428 19.3042L132.475 26.6737C128.628 24.032 124.848 22.7045 121.109 22.7045C119.389 22.7045 118.02 23.0025 117.045 23.585C116.061 24.1811 115.568 25.0164 115.568 26.0912C115.577 26.8678 115.876 27.482 116.463 27.9335C117.045 28.3806 118.088 28.787 119.551 29.1798L125.674 30.5887L125.702 30.5481ZM208.297 34.4902C209.99 36.1836 210.83 38.4865 210.843 41.3856C210.843 44.8806 209.448 47.6216 206.658 49.6085C203.88 51.6134 200.06 52.6023 195.183 52.6023C191.837 52.6023 188.776 52.223 185.985 51.4644C183.208 50.7058 180.81 49.6085 178.792 48.1861L181.745 40.5186C183.714 41.8461 185.881 42.8802 188.247 43.6208C190.618 44.3523 192.989 44.7181 195.4 44.7181C197.125 44.7181 198.466 44.4381 199.423 43.8782C200.39 43.3092 200.873 42.5325 200.873 41.5481C200.873 40.6721 200.539 39.9857 199.871 39.489C199.207 39.0013 197.974 38.5543 196.145 38.1614L190.225 36.8338C186.744 36.0481 184.17 34.8424 182.517 33.1897C180.878 31.5505 180.051 29.2882 180.051 26.4434C180.051 24.1946 180.702 22.1897 182.016 20.4828C183.316 18.7623 185.159 17.4076 187.556 16.4187C189.941 15.4433 192.664 14.9557 195.712 14.9557C198.322 14.9557 200.855 15.3485 203.311 16.1342C205.763 16.9199 207.985 18.0172 209.963 19.4532L207.01 26.8227C203.162 24.1811 199.369 22.8535 195.63 22.8535C193.91 22.8535 192.555 23.1515 191.566 23.734C190.591 24.3301 190.103 25.17 190.103 26.2402C190.103 27.0259 190.397 27.64 190.984 28.0826C191.58 28.5296 192.609 28.936 194.086 29.3289L200.223 30.7377C203.907 31.5641 206.603 32.8375 208.297 34.5308V34.4902ZM153.202 50.3942L139.275 15.9717H150.072L158.769 37.186L167.466 15.9717H178.263L158.078 65.3499H147.282L153.202 50.3942Z" fill="white"/>
</svg>
