<svg width="352" height="66" viewBox="0 0 352 66" fill="none" xmlns="http://www.w3.org/2000/svg">
<path fill-rule="evenodd" clip-rule="evenodd" d="M0 0V65.3527H65.4656V0H0Z" fill="#101010"/>
<path fill-rule="evenodd" clip-rule="evenodd" d="M32.6765 0.901123C50.2532 0.901123 64.5636 15.2097 64.5636 32.6753C64.5636 50.2538 50.2551 64.4495 32.6765 64.4495C15.098 64.4495 0.902344 50.2538 0.902344 32.6753C0.902344 15.2097 15.0999 0.901123 32.6765 0.901123Z" fill="#F5F5F5"/>
<path fill-rule="evenodd" clip-rule="evenodd" d="M58.931 46.7581C61.2305 42.4206 62.4296 37.5847 62.423 32.6753C62.423 16.3367 49.1267 3.04224 32.677 3.04224C16.3384 3.04224 3.04395 16.3386 3.04395 32.6753C3.04395 37.744 4.28383 42.4778 6.53594 46.7581H58.931ZM7.55005 48.3348C12.7335 56.7863 22.0863 62.3103 32.677 62.3103C43.3807 62.3103 52.6206 56.7863 57.9169 48.3348H7.55005Z" fill="#101010"/>
<path fill-rule="evenodd" clip-rule="evenodd" d="M20.0586 38.4214L24.4518 45.6349L28.1696 38.9858L20.0586 38.4214Z" fill="#F5F5F5"/>
<path fill-rule="evenodd" clip-rule="evenodd" d="M24.4519 43.9434L21.5225 39.3245L26.8188 39.887L24.4519 43.9434Z" fill="#101010"/>
<path fill-rule="evenodd" clip-rule="evenodd" d="M25.4658 28.9575L30.0867 35.7158L30.5364 34.9293L27.0444 29.8588L33.0143 30.5342L33.4677 29.7459L25.4658 28.9575ZM29.8609 21.4072L34.1413 28.506L37.9738 21.8588L29.8609 21.4072Z" fill="#F5F5F5"/>
<path fill-rule="evenodd" clip-rule="evenodd" d="M34.2565 26.9293L31.3252 22.3103L36.5086 22.76L34.2565 26.9293Z" fill="#101010"/>
<path fill-rule="evenodd" clip-rule="evenodd" d="M38.3105 18.0282L31.8891 17.6895L31.4375 18.365L39.7762 18.8165L34.9314 12.3951L34.4798 13.1834L38.3105 18.0282ZM35.27 11.7178H43.7197L38.9878 5.07056L35.27 11.7178Z" fill="#F5F5F5"/>
<path fill-rule="evenodd" clip-rule="evenodd" d="M42.2544 11.0403H36.3955L38.9882 6.76001L42.2544 11.0403Z" fill="#101010"/>
<path fill-rule="evenodd" clip-rule="evenodd" d="M28.8472 37.9716L29.2968 37.0685L22.8754 33.4636L22.4238 34.2538L28.8472 37.9716ZM35.0428 16.3366C35.2686 15.8851 35.1557 15.4354 34.7042 15.0967C34.2545 14.871 33.8029 15.0967 33.5772 15.4354C33.2385 15.8851 33.4643 16.4495 33.9158 16.6753C34.2564 16.9011 34.8189 16.7882 35.0428 16.3366ZM29.9741 31.8869C29.7484 32.2256 29.8613 32.6753 30.3128 32.901C30.7644 33.1249 31.214 33.0139 31.4398 32.6753C31.7785 32.3366 31.5527 31.774 31.214 31.5483C30.7625 31.3244 30.198 31.4354 29.9741 31.8869Z" fill="#F5F5F5"/>
<path fill-rule="evenodd" clip-rule="evenodd" d="M104.338 48.1016H97.0134V35.5955H82.2533V48.1016H74.9307V17.1177H82.2533V29.6238H97.0134V17.1177H104.338V48.1016ZM130.705 48.1016H108.959V17.1177H130.479V22.8637H116.282V29.398H129.804V35.033H116.282V42.5814H130.705V48.1016ZM142.423 48.1016H134.987V17.1177H142.423V48.1016ZM161.013 17.1177C171.832 17.1177 177.239 24.2146 177.239 32.779C177.239 41.6783 172.056 48.1016 160.225 48.1016H148.056V17.1177H161.013Z" fill="#F5F5F5"/>
<path fill-rule="evenodd" clip-rule="evenodd" d="M155.379 42.5815H160.224C167.548 42.5815 169.802 37.2871 169.802 32.6662C169.802 27.3699 167.097 22.8638 160.113 22.8638H155.379V42.5815Z" fill="#101010"/>
<path fill-rule="evenodd" clip-rule="evenodd" d="M201.916 48.1016H180.17V17.1177H201.692V22.8637H187.493V29.398H201.013V35.033H187.493V42.5814H201.916V48.1016ZM234.478 48.1016H223.775L211.944 26.3557V48.1016H204.507V17.1177H216.789L227.041 41.1158V17.1177H234.478V48.1016ZM352 48.1016H341.295L329.462 26.3557V48.1016H322.029V17.1177H334.311L344.563 41.1158V17.1177H352V48.1016ZM268.958 48.1016H261.635V35.5955H246.873V48.1016H239.549V17.1177H246.873V29.6238H261.635V17.1177H268.958V48.1016ZM305.353 48.1016H297.464L294.986 42.1318H281.801L279.549 48.1016H271.773L283.72 17.1177H292.283L305.353 48.1016Z" fill="#F5F5F5"/>
<path fill-rule="evenodd" clip-rule="evenodd" d="M288.112 24.5532L283.721 36.6097H292.844L288.112 24.5532Z" fill="#101010"/>
<path fill-rule="evenodd" clip-rule="evenodd" d="M316.73 48.1016H309.409V17.1177H316.73V48.1016Z" fill="#F5F5F5"/>
</svg>
