<svg width="290" height="66" viewBox="0 0 290 66" fill="none" xmlns="http://www.w3.org/2000/svg">
<path d="M285.671 20.2009C286.24 20.2009 286.766 20.3104 287.247 20.5292C287.75 20.7481 288.166 21.0326 288.538 21.4046C288.91 21.7767 289.195 22.2144 289.414 22.6959C289.633 23.1992 289.742 23.7245 289.742 24.2716C289.742 24.8188 289.633 25.3659 289.414 25.8474C289.195 26.3289 288.91 26.7666 288.538 27.1386C288.166 27.5107 287.729 27.7952 287.247 28.014C286.744 28.2329 286.218 28.3423 285.671 28.3423C285.124 28.3423 284.577 28.2329 284.096 28.014C283.614 27.7952 283.176 27.5107 282.804 27.1386C282.432 26.7666 282.148 26.3508 281.929 25.8474C281.71 25.3659 281.601 24.8407 281.601 24.2716C281.601 23.7026 281.71 23.1774 281.929 22.6959C282.148 22.1925 282.432 21.7767 282.804 21.4046C283.176 21.0326 283.592 20.7481 284.096 20.5292C284.577 20.3104 285.102 20.2009 285.671 20.2009ZM285.671 27.7295C286.634 27.7295 287.466 27.3794 288.144 26.7009C288.823 26.0225 288.713 26.0225 288.888 25.5848C289.064 25.1689 289.151 24.7093 289.151 24.2279C289.151 23.7464 289.064 23.3087 288.888 22.871C288.713 22.4551 288.451 22.0831 288.144 21.7548C287.466 21.0763 286.634 20.7262 285.671 20.7262C284.708 20.7262 283.877 21.0763 283.22 21.7548C282.542 22.4332 282.191 23.2649 282.191 24.2279C282.191 25.1908 282.279 25.147 282.454 25.5848C282.629 26.0006 282.892 26.3726 283.198 26.7009C283.855 27.3794 284.686 27.7295 285.649 27.7295H285.671ZM287.663 23.3306C287.663 23.5932 287.575 23.8339 287.422 24.0528C287.269 24.2716 287.05 24.4029 286.766 24.4905C287.203 24.6218 287.466 24.972 287.553 25.5629C287.575 25.7161 287.597 25.8474 287.597 25.9568V26.5039H286.787V26.0444C286.787 25.6942 286.744 25.4534 286.678 25.3002C286.525 24.9939 286.262 24.8188 285.868 24.8188H284.708V26.4821H283.877V21.9518H285.803C286.437 21.9518 286.919 22.0831 287.203 22.3238C287.488 22.5646 287.641 22.8928 287.641 23.2868L287.663 23.3306ZM285.759 24.1622C286.087 24.1622 286.35 24.0965 286.547 23.9652C286.744 23.8339 286.853 23.6588 286.853 23.44C286.853 23.2211 286.766 23.0242 286.612 22.8928C286.459 22.7615 286.153 22.6959 285.737 22.6959H284.73V24.1622H285.759Z" fill="white"/>
<path d="M94.8986 19.7847C98.6848 19.7847 101.771 21.054 104.134 23.5927C106.367 26.022 107.483 29.1298 107.483 32.8722C107.483 36.6146 106.367 39.7223 104.134 42.1516C101.771 44.6903 98.6848 45.9597 94.8986 45.9597C91.1124 45.9597 88.0266 44.6903 85.6629 42.1516C83.4306 39.7223 82.3145 36.6146 82.3145 32.8722C82.3145 29.1298 83.4306 26.022 85.6629 23.5927C88.0266 21.054 91.1124 19.7847 94.8986 19.7847ZM94.8986 42.5237C97.6343 42.5237 99.801 41.5826 101.399 39.6786C102.931 37.884 103.675 35.6079 103.675 32.8722C103.675 30.1365 102.909 27.8604 101.399 26.0658C99.801 24.1618 97.6343 23.2207 94.8986 23.2207C92.1629 23.2207 89.9963 24.1618 88.3986 26.0658C86.8666 27.8604 86.1225 30.1365 86.1225 32.8722C86.1225 35.6079 86.8885 37.884 88.3986 39.6786C89.9963 41.5826 92.1629 42.5237 94.8986 42.5237Z" fill="white"/>
<path d="M116.301 20.1786V24.1399C117.22 22.9143 118.337 21.8857 119.65 21.054C120.963 20.2005 122.473 19.7847 124.158 19.7847C125.843 19.7847 127.31 20.0254 128.513 20.485C129.739 20.9665 130.789 21.6668 131.709 22.6079C133.81 24.6651 134.86 27.4008 134.86 30.7712V45.5439H131.052V30.8806C131.052 28.5389 130.395 26.6786 129.082 25.2998C127.769 23.921 126.062 23.2207 123.961 23.2207C121.86 23.2207 120.022 23.921 118.534 25.3436C117.045 26.788 116.301 28.6702 116.301 30.9244V45.5439H112.493V20.1786H116.301Z" fill="white"/>
<path d="M156.156 26.9848C155.827 24.3367 153.704 23.0236 149.787 23.0236C145.869 23.0236 143.922 24.2491 143.922 26.6784C143.922 29.1077 144.338 28.473 145.169 28.9983C146.001 29.5235 147.029 29.9613 148.299 30.2895C149.546 30.6178 150.903 30.9461 152.391 31.2306C153.858 31.5151 155.215 31.9309 156.484 32.4562C157.731 32.9815 158.782 33.7037 159.614 34.6229C160.445 35.5421 160.861 36.7895 160.861 38.3872C160.861 40.8602 159.92 42.7424 158.06 44.0555C156.199 45.3686 153.683 46.0033 150.487 46.0033C147.292 46.0033 144.403 45.1498 142.412 43.4646C140.573 41.9764 139.61 40.0286 139.457 37.6212H143.418C143.659 39.9629 144.972 41.5387 147.38 42.3484C148.255 42.6111 149.13 42.7643 149.984 42.7643C150.837 42.7643 151.647 42.7205 152.391 42.6111C153.135 42.5016 153.858 42.3266 154.58 42.042C156.199 41.4074 157.009 40.2912 157.009 38.7373C157.009 37.1835 156.593 36.8771 155.762 36.3299C154.93 35.7609 153.901 35.3232 152.632 34.9511C151.385 34.601 150.028 34.2727 148.54 33.9882C147.073 33.7037 145.694 33.3097 144.447 32.8064C143.199 32.303 142.149 31.6027 141.317 30.7272C140.486 29.8518 140.07 28.6262 140.07 27.0724C140.07 24.7744 140.901 22.9798 142.587 21.7104C144.272 20.4411 146.745 19.8064 150.028 19.8064C153.311 19.8064 155.587 20.5505 157.381 22.0387C158.869 23.2862 159.723 24.9495 159.964 27.0067H156.112L156.156 26.9848Z" fill="white"/>
<path d="M169.504 10.0454V24.1615C170.424 22.936 171.54 21.9073 172.853 21.0757C174.166 20.2222 175.676 19.8063 177.361 19.8063C179.046 19.8063 180.513 20.0471 181.716 20.5067C182.942 20.9882 183.993 21.6885 184.912 22.6296C187.013 24.6868 188.063 27.4225 188.063 30.7928V45.5655H184.255V30.9023C184.255 28.5605 183.599 26.7003 182.285 25.3215C180.972 23.9427 179.265 23.2424 177.164 23.2424C175.063 23.2424 173.225 23.9427 171.737 25.3652C170.248 26.8097 169.504 28.6918 169.504 30.946V45.5655H165.696V10.0454H169.504Z" fill="white"/>
<path d="M214.219 41.4951C212.183 44.4715 209.163 45.9597 205.136 45.9597C201.109 45.9597 198.505 44.6903 196.207 42.1516C193.975 39.6567 192.858 36.5489 192.858 32.8722C192.858 29.1954 193.975 26.0877 196.207 23.5927C198.505 21.054 201.569 19.7847 205.399 19.7847C209.229 19.7847 212.161 21.2948 214.219 24.2931V20.1786H218.027V45.5439H214.219V41.4732V41.4951ZM205.639 42.5237C208.375 42.5237 210.542 41.5826 212.139 39.6786C213.671 37.884 214.416 35.6079 214.416 32.8722C214.416 30.1365 213.65 27.8604 212.139 26.0658C210.542 24.1618 208.375 23.2207 205.639 23.2207C202.904 23.2207 200.737 24.1618 199.052 26.0658C197.454 27.8604 196.666 30.1365 196.666 32.8722C196.666 35.6079 197.454 37.884 199.052 39.6786C200.737 41.5826 202.948 42.5237 205.639 42.5237Z" fill="white"/>
<path d="M228.421 24.2493C230.457 21.2729 233.477 19.7847 237.504 19.7847C241.531 19.7847 244.113 21.054 246.389 23.5927C248.665 26.0877 249.782 29.1954 249.782 32.8722C249.782 36.5489 248.644 39.6567 246.389 42.1516C244.113 44.6903 241.071 45.9597 237.263 45.9597C233.455 45.9597 230.5 44.4496 228.421 41.4513V55.6112H224.613V20.1786H228.421V24.2493ZM237 23.2207C234.265 23.2207 232.098 24.1618 230.5 26.0658C228.968 27.8604 228.224 30.1365 228.224 32.8722C228.224 35.6079 228.99 37.884 230.5 39.6786C232.098 41.5826 234.265 42.5237 237 42.5237C239.736 42.5237 241.903 41.5826 243.588 39.6786C245.186 37.884 245.974 35.6079 245.974 32.8722C245.974 30.1365 245.186 27.8604 243.588 26.0658C241.903 24.1618 239.692 23.2207 237 23.2207Z" fill="white"/>
<path d="M266.085 42.5237C269.499 42.5237 271.95 41.1011 273.438 38.256H277.597C276.721 40.554 275.321 42.4142 273.417 43.8368C271.512 45.2594 269.039 45.9597 266.041 45.9597C263.043 45.9597 259.103 44.6903 256.696 42.1516C254.354 39.6786 253.194 36.5927 253.194 32.8722C253.194 29.1517 254.311 26.022 256.543 23.5927C258.906 21.054 261.992 19.7847 265.778 19.7847C269.565 19.7847 272.651 21.054 275.014 23.5927C277.246 26.022 278.363 29.1298 278.363 32.8722V34.4042H257.09C257.353 36.7459 258.294 38.6718 259.891 40.1819C261.511 41.7358 263.568 42.5237 266.085 42.5237ZM265.778 23.2207C263.437 23.2207 261.489 23.9429 259.891 25.4092C258.403 26.788 257.484 28.6045 257.156 30.8368H274.401C274.073 28.6045 273.154 26.788 271.666 25.4092C270.068 23.9648 268.12 23.2207 265.778 23.2207Z" fill="white"/>
<path d="M39.0875 6.28113L28.1885 0L0 16.2828V30.8585L11.1835 37.4898V22.4326L39.0875 6.28113Z" fill="#40AA1D"/>
<path d="M0 35.6514V49.0015L28.3417 65.35L40.7508 58.2153V44.515L28.1885 52.7002L0 35.6514Z" fill="#40AA1D"/>
<path d="M44.9553 23.1552L31.7803 15.561L43.4233 8.79834L56.6641 16.3707V49.002L44.9335 55.7646L44.9553 23.1552Z" fill="#40AA1D"/>
<path d="M32.5 20.7258L27.729 17.9683L15.3418 25.1248V31.5154L20.2223 34.4043V27.8386L32.5 20.7258Z" fill="white"/>
<path d="M15.3418 34.0972V39.9406L28.1886 47.6662L33.4848 44.4052V38.5399L28.1886 41.9103L15.3418 34.0972Z" fill="white"/>
<path d="M35.6075 28.4951L29.7422 25.1028L34.8853 22.1045L40.7506 25.4749V39.8098L35.6075 43.0489V28.4951Z" fill="white"/>
</svg>
